<?xml version="1.0" encoding="iso-8859-1"?>
<!-- Generator: Adobe Illustrator 19.0.0, SVG Export Plug-In . SVG Version: 6.00 Build 0)  -->
<svg version="1.1" id="Layer_1" xmlns="http://www.w3.org/2000/svg" xmlns:xlink="http://www.w3.org/1999/xlink" x="0px" y="0px"
	 viewBox="0 0 511.997 511.997" style="enable-background:new 0 0 511.997 511.997;" xml:space="preserve">
<g>
	<g>
		<path d="M245.339,138.671c-5.891,0-10.672,4.773-10.672,10.664s4.781,10.664,10.672,10.664s10.664-4.773,10.664-10.664
			S251.23,138.671,245.339,138.671z"/>
	</g>
</g>
<g>
	<g>
		<path d="M308.565,138.671c-5.89,0-10.656,4.773-10.656,10.664s4.766,10.664,10.656,10.664c5.891,0,10.656-4.773,10.656-10.664
			S314.455,138.671,308.565,138.671z"/>
	</g>
</g>
<g>
	<g>
		<path d="M458.658,394.669V10.672c0-5.89-4.765-10.672-10.656-10.672H96.004C72.481,0,53.34,19.141,53.34,42.671v383.998
			c0,23.516,19.141,42.656,42.664,42.656h10.664v32c0,3.438,1.648,6.656,4.43,8.656s6.359,2.547,9.609,1.469l28.632-9.547
			l28.625,9.547c1.102,0.359,2.242,0.547,3.375,0.547c2.211,0,4.398-0.688,6.234-2.016c2.781-2,4.43-5.219,4.43-8.656v-32h234.655
			h10.688h10.656c5.891,0,10.656-4.766,10.656-10.656s-4.766-10.672-10.656-10.672v-42.672
			C453.892,405.325,458.658,400.559,458.658,394.669z M74.668,341.327c5.891,0,10.672-4.766,10.672-10.656
			s-4.781-10.672-10.672-10.672v-42.672c5.891,0,10.672-4.766,10.672-10.656s-4.781-10.672-10.672-10.672v-42.664
			c5.891,0,10.672-4.773,10.672-10.664s-4.781-10.672-10.672-10.672v-42.664c5.891,0,10.672-4.773,10.672-10.664
			s-4.781-10.672-10.672-10.672V85.336c5.891,0,10.672-4.773,10.672-10.664S80.559,64,74.668,64V42.672
			c0-11.765,9.57-21.335,21.336-21.335h10.664v362.662H96.004c-7.766,0-15.055,2.092-21.336,5.732V341.327z M170.667,486.528
			l-17.961-5.984c-2.188-0.734-4.555-0.734-6.742,0l-17.961,5.984v-49.203h42.664V486.528z M426.658,415.997h-74.655
			c-5.891,0-10.656,4.781-10.656,10.672s4.766,10.656,10.656,10.656h74.655v10.672H192.003v-10.672
			c5.891,0,10.664-4.766,10.664-10.656s-4.773-10.672-10.664-10.672h-85.335c-5.891,0-10.664,4.781-10.664,10.672
			s4.773,10.656,10.664,10.656v10.672H96.004c-11.766,0-21.336-9.578-21.336-21.328c0-11.766,9.57-21.344,21.336-21.344h308.748
			c0.188,0.016,0.391,0.031,0.594,0.031c0.188,0,0.375-0.016,0.578-0.031h20.734V415.997z M426.658,383.999h-8.781
			c0.625-2.078,1.469-4.266,2.609-6.438c3.688-7.062,9.25-11.547,16.859-13.594v20.032H426.658z M437.345,342.187
			c-16.313,2.734-28.953,11.843-36.219,26.374c-2.75,5.516-4.344,10.953-5.25,15.438H128.003V21.336h267.874
			c0.906,4.484,2.5,9.93,5.25,15.438c7.266,14.523,19.906,23.648,36.219,26.367V342.187z M437.346,41.368L437.346,41.368
			c-7.61-2.047-13.173-6.539-16.86-13.594c-1.141-2.164-1.984-4.367-2.609-6.438h19.469V41.368z"/>
	</g>
</g>
<g>
	<g>
		<path d="M362.659,287.999H192.003c-5.891,0-10.664,4.781-10.664,10.672s4.773,10.656,10.664,10.656h170.656
			c5.906,0,10.688-4.766,10.688-10.656S368.565,287.999,362.659,287.999z"/>
	</g>
</g>
<g>
	<g>
		<path d="M320.003,330.671h-85.336c-5.891,0-10.664,4.766-10.664,10.656s4.773,10.672,10.664,10.672h85.336
			c5.891,0,10.656-4.781,10.656-10.672S325.894,330.671,320.003,330.671z"/>
	</g>
</g>
<g>
	<g>
		<path d="M277.347,64c-47.062,0-85.343,38.281-85.343,85.335c-0.001,25.969,11.867,50.469,31.999,66.609v29.391
			c0,5.891,4.773,10.664,10.664,10.664h85.336c5.891,0,10.656-4.773,10.656-10.664v-29.391c20.156-16.14,32-40.64,32-66.609
			C362.659,102.281,324.393,64,277.347,64z M313.909,201.867c-2.875,1.992-4.562,5.258-4.562,8.742v24.062h-10.688
			c0-5.891-4.766-10.672-10.656-10.672s-10.656,4.781-10.656,10.672c0-5.891-4.781-10.672-10.68-10.672
			c-5.891,0-10.664,4.781-10.664,10.672h-10.664v-24.062c0-3.484-1.711-6.75-4.57-8.742c-17.172-11.984-27.43-31.625-27.43-52.531
			c0-35.289,28.711-64,64.008-64c35.281,0,64,28.711,64,64C341.347,170.242,331.081,189.883,313.909,201.867z"/>
	</g>
</g>
<g>
</g>
<g>
</g>
<g>
</g>
<g>
</g>
<g>
</g>
<g>
</g>
<g>
</g>
<g>
</g>
<g>
</g>
<g>
</g>
<g>
</g>
<g>
</g>
<g>
</g>
<g>
</g>
<g>
</g>
</svg>